<svg id="F1_Manager_Logo_Hero" enable-background="new 0 0 2128.5 504" version="1.1" viewBox="0 0 2128.5 504" xml:space="preserve" xmlns="http://www.w3.org/2000/svg">
<style type="text/css">
	.st0{fill:#E10600;}
	.st1{fill:#000000;}
</style>
<path class="st0" d="m1228.8 288 284.6-288h186.7l-288 288h-183.3zm159.2-175.7 112.3-112.3h-577.5c-171.1 0-213.2 11.3-300.3 98.4l-189.6 189.6h171.1l126.5-125.7c38.8-38.8 58.4-50 166.9-50h490.6zm-479.1 10c-114.6 0-132.3 9.2-168.8 46.1l-118.4 119.6h171.5l40-40c11.2-11.1 20.4-14.2 50-14.2h385.3l109.2-111.5h-468.8zm582.6 165.7c-9.9 0-18-8-18-18s8-18 18-18c4.8-0.1 9.5 1.7 12.9 5.2 6.8 7.2 6.8 18.4 0 25.6-3.4 3.5-8.1 5.3-12.9 5.2zm-0.1-33.2c-4-0.1-7.9 1.5-10.7 4.4-5.7 6-5.7 15.4 0 21.4 5.9 5.9 15.5 5.9 21.4 0 5.7-6 5.7-15.5 0-21.5-2.8-2.8-6.7-4.4-10.7-4.3zm-3.5 18.2v7h-4v-20h7.6c2.1-0.1 4.1 0.4 5.8 1.5 1.3 1 2.1 2.7 1.9 4.4 0.1 1.5-0.2 3-0.8 4.3-0.6 1-1.6 1.8-2.7 2.3l3.8 7.6h-4.2l-3.4-7-4-0.1zm-0.1-9.9v6.7h4c1 0.1 1.9-0.2 2.7-0.8 0.6-0.7 0.9-1.6 0.8-2.6 0-2.2-1.4-3.4-4.2-3.4l-3.3 0.1z"/>

		<path class="st0" d="m1764 468v-11c0-3.9 3.1-7 7-7h96.5c24.9 0 45-20.1 45-45s-20.1-45-45-45h-153v36h139.5c5 0 9 4 9 9s-4 9-9 9h-101.2c-21.1 0-38.3 17.1-38.3 38.2v51.8h198v-36z"/>
		<path class="st0" d="m2090.3 360h-159.8v36h141.5c3.9 0 7 3.1 7 7v11h-148.5v36h148.5v11c0 3.9-3.1 7-7 7h-141.5v36h159.8c21.1 0 38.2-17.1 38.2-38.2v-69.8c-1.2-20.2-17.9-36-38.2-36z"/>
	<g>
		<path class="st1" d="m281.3 371.2-83.3 83.3v-56.3c0-21.1-17.1-38.2-38.2-38.2-10.1 0-19.8 4-27 11.2l-132.8 132.8h63l85.5-85.5v41c0 24.6 19.9 44.5 44.5 44.5 11.8 0 23.1-4.7 31.5-13l72.4-72.5v85.5h49.5v-105.8c0-21.1-17.1-38.2-38.2-38.2-10 0-19.7 4-26.9 11.2z"/>
		<path class="st1" d="m645.7 371.2 83.3 83.3v-94.5h49.5v99.5c0 24.6-19.9 44.5-44.5 44.5-11.8 0-23.1-4.7-31.5-13.1l-72.5-72.4v85.5h-49.5v-105.8c0-21.1 17.1-38.2 38.2-38.2 10.1 0 19.8 4 27 11.2z"/>
		<path class="st1" d="m407.3 371.2-31.6 31.6c-7.2 7.2-11.2 16.9-11.2 27v74.2h49.5v-54h99v54h49.5v-105.8c0-21.1-17.1-38.2-38.2-38.2h-90c-10.1 0-19.8 4-27 11.2zm105.7 42.8h-94.5l18-18h69.5c3.9 0 7 3.1 7 7z"/>
		<path class="st1" d="m839.3 371.2-31.6 31.6c-7.2 7.2-11.2 16.9-11.2 27v74.2h49.5v-54h99v54h49.5v-105.8c0-21.1-17.1-38.2-38.2-38.2h-90c-10.1 0-19.8 4-27 11.2zm105.7 42.8h-94.5l18-18h69.5c3.9 0 7 3.1 7 7z"/>
		<path class="st1" d="m1381.5 450v-36h-153v51.8c0 21.1 17.1 38.2 38.2 38.2h159.8v-36h-141.5c-3.9 0-7-3.1-7-7v-11z"/>
		<path class="st1" d="m1069 396h141.5v-36h-159.8c-21.1 0-38.2 17.1-38.2 38.2v67.6c0 21.1 17.1 38.2 38.2 38.2h121.6c21.1 0 38.2-17.1 38.2-38.2v-51.8h-130.5v36h81v11c0 3.9-3.1 7-7 7h-85c-3.9 0-7-3.1-7-7v-58c0-3.9 3.1-7 7-7z"/>
		<path class="st1" d="m1266.7 360c-20.3 0-37 15.8-38.2 36h198v-36z"/>
		<path class="st1" d="m1669.5 385.5c0-14.1-11.4-25.5-25.5-25.5h-161.3c-20.3 0-37 15.8-38.2 36h162l-18 18h-144v90h49.5v-54h58.5l54 54h63l-54-54 46.5-46.5c4.8-4.8 7.5-11.2 7.5-18z"/>
	</g>
</svg>
